HIERARCHY
ROOT hip
{
	OFFSET 0.000000 0.000000 0.000000 
	CHANNELS 6 Xposition Yposition Zposition Xrotation Zrotation Yrotation
	JOINT abdomen
	{
		OFFSET 0.000000 3.402643 0.000000 
		CHANNELS 3 Xrotation Zrotation Yrotation
		JOINT chest
		{
			OFFSET 0.000000 8.438565 -0.680529 
			CHANNELS 3 Xrotation Zrotation Yrotation
			JOINT neck
			{
				OFFSET 0.000000 10.207942 -0.272212 
				CHANNELS 3 Xrotation Zrotation Yrotation
				JOINT head
				{
					OFFSET 0.000000 3.130431 0.000000 
					CHANNELS 3 Xrotation Zrotation Yrotation
					End Site
					{
						OFFSET 0.000000 3.130435 0.000000 
					}
				}
			}
			JOINT lCollar
			{
				OFFSET 3.470700 6.669187 -0.816635 
				CHANNELS 3 Yrotation Zrotation Xrotation
				JOINT lShldr
				{
					OFFSET 3.198488 0.000000 0.000000 
					CHANNELS 3 Zrotation Yrotation Xrotation
					JOINT lForeArm
					{
						OFFSET 10.139888 0.000000 0.000000 
						CHANNELS 3 Yrotation Zrotation Xrotation
						JOINT lHand
						{
							OFFSET 8.370511 0.000000 0.000000 
							CHANNELS 3 Zrotation Yrotation Xrotation
							End Site
							{
								OFFSET 4.083176 0.000000 0.000000 
							}
						}
					}
				}
			}
			JOINT rCollar
			{
				OFFSET -3.470700 6.669187 -0.816635 
				CHANNELS 3 Yrotation Zrotation Xrotation
				JOINT rShldr
				{
					OFFSET -3.198488 0.000000 0.000000 
					CHANNELS 3 Zrotation Yrotation Xrotation
					JOINT rForeArm
					{
						OFFSET -10.139888 0.000000 0.000000 
						CHANNELS 3 Yrotation Zrotation Xrotation
						JOINT rHand
						{
							OFFSET -8.370511 0.000000 0.000000 
							CHANNELS 3 Zrotation Yrotation Xrotation
							End Site
							{
								OFFSET -4.083176 0.000000 0.000000 
							}
						}
					}
				}
			}
		}
	}
	JOINT lThigh
	{
		OFFSET 5.308129 -1.633274 1.361059 
		CHANNELS 3 Xrotation Zrotation Yrotation
		JOINT lShin
		{
			OFFSET -2.041588 -20.007561 0.000000 
			CHANNELS 3 Xrotation Zrotation Yrotation
			JOINT lFoot
			{
				OFFSET 0.000000 -19.190928 -1.224953 
				CHANNELS 3 Xrotation Yrotation Zrotation
				End Site
				{
					OFFSET 0.000000 -2.449906 4.627600 
				}
			}
		}
	}
	JOINT rThigh
	{
		OFFSET -5.308129 -1.633274 1.361059 
		CHANNELS 3 Xrotation Zrotation Yrotation
		JOINT rShin
		{
			OFFSET 2.041588 -20.007561 0.000000 
			CHANNELS 3 Xrotation Zrotation Yrotation
			JOINT rFoot
			{
				OFFSET 0.000000 -19.190928 -1.224953 
				CHANNELS 3 Xrotation Yrotation Zrotation
				End Site
				{
					OFFSET 0.000000 -2.449906 4.627600 
				}
			}
		}
	}
}
MOTION
Frames: 11
Frame Time: 0.033333
10.199966 39.286633 13.718435 11.443919 -8.008595 41.041126 0.000000 0.000000 0.000000 13.838725 30.577377 2.193869 -34.844669 -0.827060 -15.763415 44.786587 -9.452313 -14.003877 -3.521967 9.154817 6.304141 -74.048950 -124.994087 9.508496 -21.674795 0.359314 6.567820 -0.930451 -12.122972 -6.761241 3.089181 -14.089146 8.026228 -62.146996 15.761240 -44.994827 9.289754 -4.675856 21.785524 29.100485 14.707506 -0.165126 -5.077949 11.146617 22.181313 57.965942 -10.014771 -24.968204 -38.728130 -7.434543 18.788795 -67.249352 -24.958435 -1.858976 48.817856 -6.630598 24.966375 -2.646441 -0.012804 0.068562 
9.673414 37.521538 16.412571 9.185012 -8.837272 46.182198 0.000000 0.000000 0.000000 9.357784 29.308014 1.504368 -34.043747 1.086902 -17.962311 42.479465 -7.164663 -14.037734 -3.521967 9.154817 6.304141 -65.206390 -123.846985 -0.587370 -42.786884 -5.005239 0.302355 -4.043300 -13.675976 -5.962401 3.089181 -14.089146 8.026228 -57.936245 12.556507 -44.998543 7.310035 -5.006134 36.040668 31.433418 18.322769 1.664448 -3.165430 16.318815 22.490297 61.675583 -7.561998 -24.964598 -45.514000 -10.209946 21.715696 -68.998978 -22.781521 -3.790282 48.880352 -4.498279 24.945305 5.989202 0.081374 2.166486 
9.256356 36.184662 19.337662 6.638153 -8.202436 53.087479 0.000000 0.000000 0.000000 6.723818 25.652302 -2.511463 -34.969608 2.681437 -21.459797 35.668068 -4.628409 -15.178098 -3.521967 9.154817 6.304141 -46.489937 -112.981247 -14.282865 -61.357414 -5.006818 -6.233290 -8.112086 -13.004116 -5.124740 3.089181 -14.089146 8.026228 -50.624283 10.947783 -44.993984 7.058723 -5.008252 27.071478 32.503712 17.385139 1.653153 -3.330894 21.275381 20.387661 68.208458 -3.149161 -24.970238 -42.182854 -8.797235 20.375557 -68.988571 -22.087664 -4.761802 56.219063 -5.409432 20.278221 4.278771 -0.039548 1.675631 
9.173031 35.179966 22.330601 2.771392 -8.962385 59.486877 0.000000 0.000000 0.000000 6.258125 25.565874 -7.570484 -36.173790 3.264202 -23.350563 29.972864 -3.369460 -16.054337 -3.521967 9.154817 6.304141 -17.555767 -105.146446 -37.713745 -77.344101 -5.002783 -13.386029 -10.735089 -13.010630 -4.533953 3.089181 -14.089146 8.026228 -43.943027 11.570937 -44.999310 9.444113 -5.009197 14.272087 34.435844 17.259125 2.150550 -5.177107 28.692087 16.436769 73.611320 0.698132 -24.975641 -35.398209 -6.350702 17.465734 -69.290154 -21.520771 -6.777253 69.168831 -7.480683 13.531382 -2.527382 -0.039721 0.352571 
9.333145 34.848713 24.710684 -1.174860 -10.013516 64.169609 0.000000 0.000000 0.000000 7.404644 29.544329 -12.074201 -36.895962 4.491600 -24.690134 27.487495 -2.992443 -16.155586 -3.521967 9.154817 6.304141 23.561558 -100.371750 -45.008541 -88.670708 -4.996419 -16.472792 -9.395441 -11.112238 -5.118851 3.089181 -14.089146 8.026228 -41.823589 13.509439 -44.995285 12.732831 -5.007288 11.757672 35.537510 17.373873 2.511148 -7.256304 36.426064 13.460415 75.169762 3.392945 -24.978842 -25.827057 -3.969987 14.487804 -66.190399 -21.249559 -11.269445 74.767677 -6.472847 9.243724 -8.412343 0.044962 -0.817099 
9.329520 34.870186 26.124805 -1.102414 -10.781020 65.919922 0.000000 0.000000 0.000000 8.514513 28.354849 -13.991448 -34.727253 7.809768 -26.336906 24.560993 -2.644540 -15.495860 -3.521967 9.154817 6.304141 55.400703 -100.872154 -45.384216 -90.882919 -4.994512 -14.630619 -4.581128 -11.414631 -6.066794 3.089181 -14.089146 8.026228 -38.144623 15.116388 -45.003761 14.274496 -5.007320 9.952565 29.927204 16.894943 0.764493 -12.148496 40.378605 12.691344 77.910896 3.775677 -24.953598 -9.955860 -0.968707 8.410372 -66.657372 -21.648933 -12.798977 77.936371 -6.239578 8.268051 -10.500327 0.105213 -1.084907 
9.423245 35.050560 27.092413 0.727552 -10.530318 65.119873 0.000000 0.000000 0.000000 10.888396 24.790024 -13.219536 -32.366344 10.462167 -27.386358 20.371544 -3.227389 -14.927092 -3.521967 9.154817 6.304141 -90.000000 -77.714844 44.980469 -91.209015 -4.999976 -13.871491 -5.712101 -11.441367 -5.844553 3.089181 -14.089146 8.026228 -34.893429 16.586224 -45.004265 15.357508 -5.011578 7.665815 28.532904 16.606533 0.296296 -15.956703 42.983395 15.463463 81.647957 2.843080 -24.987238 5.700906 -0.191150 -0.974135 -67.466331 -21.306116 -12.596416 79.359787 -6.746899 8.271303 -12.109208 0.223640 -1.421331 
9.516002 35.279255 27.896847 0.922814 -9.793694 65.037399 0.000000 0.000000 0.000000 13.730181 22.961086 -12.232281 -29.795191 11.185617 -26.878399 15.847996 -2.552203 -14.555845 -3.521967 9.154817 6.304141 -90.000000 -76.347656 38.671879 -89.362953 -5.003178 -11.117414 -10.723729 -10.603807 -4.902395 3.089181 -14.089146 8.026228 -33.217335 18.017551 -45.004326 16.438780 -5.004294 6.613347 28.321318 16.568783 0.226801 -18.222908 46.784767 20.270222 84.693703 1.753108 -24.964106 7.994975 -0.138472 -3.480697 -65.357910 -20.710875 -13.145294 79.137054 -6.766716 8.158731 -15.863944 0.381846 -2.360234 
9.684680 35.468117 28.633017 0.932245 -9.104362 66.363426 0.000000 0.000000 0.000000 15.115144 21.730162 -12.871349 -29.836899 9.982980 -26.246777 16.205412 -2.454830 -14.809059 -3.521967 9.154817 6.304141 -84.502945 -74.494629 29.958313 -87.331810 -4.995265 -8.198580 -10.944981 -11.533450 -4.718997 3.089181 -14.089146 8.026228 -32.226410 19.601990 -44.997726 17.226723 -5.003091 6.219532 28.562578 16.409304 0.236490 -21.114222 49.762119 25.051537 86.921036 0.455262 -24.980993 4.536864 0.019801 -1.197294 -63.940155 -21.256752 -13.598267 80.084061 -7.050018 8.133591 -16.543985 0.444944 -2.571679 
10.014461 35.628113 29.168356 1.112142 -9.354379 69.465630 0.000000 0.000000 0.000000 14.366679 20.932383 -14.865885 -28.766830 10.989856 -27.717331 14.241670 -3.435501 -15.478110 -3.521967 9.154817 6.304141 -83.527550 -73.859154 28.241247 -84.687302 -4.997495 -7.117904 -12.798307 -10.275326 -4.550295 3.089181 -14.089146 8.026228 -29.875153 20.041998 -45.002041 17.725674 -5.010827 6.193767 28.669712 16.460648 0.274539 -26.553392 51.023979 26.837717 88.422867 -0.785459 -24.985426 0.654289 0.013032 -0.047252 -63.108646 -23.442833 -14.467119 81.292458 -7.049393 7.573534 -16.973225 0.422260 -2.575472 
10.597166 35.817844 29.627485 0.744076 -9.137988 72.275314 0.000000 0.000000 0.000000 13.316314 20.470943 -15.763670 -27.064178 11.525583 -29.007072 11.855684 -3.792462 -16.512430 -3.521967 9.154817 6.304141 -87.497444 -72.557213 31.944796 -81.641426 -5.002348 -6.061503 -14.278216 -9.754977 -4.345102 3.089181 -14.089146 8.026228 -26.670460 19.670429 -45.004040 17.785942 -5.005086 5.965950 27.182714 16.599922 -0.072255 -28.106485 51.459816 28.842775 87.953346 -1.615457 -24.990238 -3.281691 0.080550 0.466151 -61.355015 -25.056879 -15.378497 82.536003 -7.216282 6.621518 -17.569725 0.461208 -2.589804 
